# xmcd CD database file
#
# Track frame offsets:
#	150
#	19749
#	34519
#	48670
#	62948
#	77922
#	91136
#	104932
#	120203
#	132434
#	146273
#	162965
#	177400
#	192822
#	207496
#	221024
#	235494
#	248216
#	261458
#	274439
#	290130
#	303536
#	314783
#	327647
#	342217
#
# Disc length: 4746 seconds
#
# Revision: 0
# Processed by: cddbd v1.5.2PL0 Copyright (c) Steve Scherf et al.
# Submitted via: CDex 1.70beta2
#
DISCID=96128819
DTITLE=Bing Crosby - The Immortal
DYEAR=1994
DGENRE=Jazz
TTITLE0=Pennies From Heaven
TTITLE1=Blue Prelude
TTITLE2=I'm Thru With Love
TTITLE3=Mississippi Mud
TTITLE4=Just One More Chance
TTITLE5=Cabin In The Cotton
TTITLE6=Moon Of Manakoora
TTITLE7=Just A Gigolo
TTITLE8=I'm An Old Cowhand
TTITLE9=Love Is Just Around The Corner
TTITLE10=I Surrender, Dear
TTITLE11=Let Me Call You Sweetheart
TTITLE12=I've Got The World On A String
TTITLE13=Sweet Leilani
TTITLE14=The Very Thought Of You
TTITLE15=I Wished On The Moon
TTITLE16='Tain't So, Honey, 'Tain't So
TTITLE17=You Must Have Been A Beautiful Baby
TTITLE18=If I Had My Way
TTITLE19=Home On The Range
TTITLE20=How Deep Is The Ocean
TTITLE21=Dancing In The Dark
TTITLE22=Here Is My Heart
TTITLE23=My Kinda Love
TTITLE24=Let's Call A Heart A Heart
EXTD=YEAR: 1994
EXTT0=
EXTT1=
EXTT2=
EXTT3=
EXTT4=
EXTT5=
EXTT6=
EXTT7=
EXTT8=
EXTT9=
EXTT10=
EXTT11=
EXTT12=
EXTT13=
EXTT14=
EXTT15=
EXTT16=
EXTT17=
EXTT18=
EXTT19=
EXTT20=
EXTT21=
EXTT22=
EXTT23=
EXTT24=
PLAYORDER=
